<svg width="160" height="160" viewBox="0 0 160 160" fill="none" xmlns="http://www.w3.org/2000/svg">
<path d="M80 0C69.4943 -1.2528e-07 59.0914 2.06926 49.3853 6.08964C39.6793 10.11 30.8601 16.0028 23.4315 23.4315C16.0028 30.8601 10.11 39.6793 6.08964 49.3853C2.06926 59.0914 -3.33941e-07 69.4943 0 80C3.33941e-07 90.5058 2.06926 100.909 6.08964 110.615C10.11 120.321 16.0028 129.14 23.4315 136.569C30.8601 143.997 39.6793 149.89 49.3853 153.91C59.0914 157.931 69.4943 160 80 160L80 80L80 0Z" fill="#222831"/>
<path d="M80 160C90.5057 160 100.909 157.931 110.615 153.91C120.321 149.89 129.14 143.997 136.569 136.569C143.997 129.14 149.89 120.321 153.91 110.615C157.931 100.909 160 90.5057 160 80C160 69.4942 157.931 59.0914 153.91 49.3853C149.89 39.6793 143.997 30.8601 136.569 23.4314C129.14 16.0028 120.321 10.11 110.615 6.08963C100.909 2.06926 90.5057 -2.96398e-06 80 0L80 80L80 160Z" fill="#EBBF55"/>
<circle cx="80.1633" cy="40" r="40" fill="#EBBF55"/>
<circle cx="80.1633" cy="120" r="40" fill="#222831"/>
<circle cx="80.1633" cy="121.633" r="10.2857" fill="#EBBF55"/>
<circle cx="80.1633" cy="40" r="10.2857" fill="#222831"/>
</svg>
